<svg xmlns="http://www.w3.org/2000/svg" viewBox="0 0 234.69 234.69"><defs><style>.cls-1{fill:#16a085;}.cls-2{fill:#fff;}</style></defs><title>Asset 3</title><g id="Layer_2" data-name="Layer 2"><g id="Layer_1-2" data-name="Layer 1"><circle class="cls-1" cx="117.34" cy="117.34" r="117.34"/><path class="cls-2" d="M51.55,60.73a5.28,5.28,0,0,1,0,4.47c-.29.84-1.09,4.92-1.77,9.08S48.27,83,48,84.46s-.55,2.82-.55,3.08.92.51,3.31.64a19,19,0,0,1,4.64.74A4.27,4.27,0,0,1,58,93.42c-.26,2.57-1.4,3.38-6.86,4.91-2.55.72-5,1.38-5.36,1.46-.61.14-.84.82-1.54,4.52-1.1,5.88-6.74,29.06-7.48,30.77a3.91,3.91,0,0,1-4.12,2.75,3.26,3.26,0,0,1-3.05-1.27l-1.27-1.26.25-4c.32-5.06,1.69-15.81,3-23.58l1-6-2.54-.41c-3.8-.61-5.85-1.37-7.15-2.67a4.31,4.31,0,0,1-1.25-4.59c.73-2.67,4.78-4.55,7.55-3.51a9.13,9.13,0,0,0,3.24,0l2.41-.35.38-1.48c1.36-5.36,6-21.44,7-24.56,1.35-4,1.84-4.77,3.41-5.58a4,4,0,0,1,1.68-.44A4.36,4.36,0,0,1,51.55,60.73Z"/><path class="cls-2" d="M108.8,97.13a5,5,0,0,1,1.86.51,7.52,7.52,0,0,1,2,1.86l1,1.32-.09,8.78c0,4.84-.3,12.63-.56,17.33l-.46,8.54-1.32,1.21a3.46,3.46,0,0,1-2.88,1.21,3.94,3.94,0,0,1-2.52-.75c-1.58-1.24-2-2.59-2.27-6.66l-.21-3.78-.74,1c-2.56,3.6-8,8.24-11,9.27a21.34,21.34,0,0,1-9.12,0C76.77,135.5,73,131.1,71.44,124c-.86-3.88-.27-11.16,1.27-15.78,1.87-5.57,3.43-8.19,5.69-9.57s4.89-.7,6.16,1.91l.76,1.58-.74,2.45a9.26,9.26,0,0,1-1.29,2.91c-1.86,1.54-2.43,11.39-.87,15,1,2.3,2.14,3.24,4,3.24,1.26,0,1.66-.25,3.64-2.24,4.13-4.15,9.22-12.94,11.64-20.12a22.13,22.13,0,0,1,1.73-4.08A6.19,6.19,0,0,1,108,97.12,6.43,6.43,0,0,1,108.8,97.13Z"/><path class="cls-2" d="M160.6,97.65a7.62,7.62,0,0,1-2.52,5,4.44,4.44,0,0,1-5-.16l-1.1-.81-.7.85a39.4,39.4,0,0,0-4.36,9.27,71.87,71.87,0,0,0-2.24,8.8s2-.47,4.35-1.15c7.34-2.11,10.77-2.26,13.05-.57a4.32,4.32,0,0,1,.27,6.46c-1,1-6.26,3.13-14,5.79l-6.08,2.08-.78,4.59c-1.19,7-4,25-4.39,28.2-.2,1.58-.62,5-.94,7.69-.6,5.09-1.14,6.79-2.43,7.63A5.76,5.76,0,0,1,130,182c-1.23-.24-2.9-2.13-3.18-3.59-.13-.72-.14-5.42,0-10.45a253.8,253.8,0,0,1,2.57-29.89,74.37,74.37,0,0,0,.81-8.09,5,5,0,0,1,.61-3,32.83,32.83,0,0,0,1.84-5.86c3.2-13.18,7.18-21.5,12.8-26.74,3.3-3.08,5.42-4.17,8.08-4.17C158.53,90.22,161.13,93,160.6,97.65Z"/><path class="cls-2" d="M206.76,60.73a5.25,5.25,0,0,1,0,4.47c-.29.84-1.09,4.92-1.77,9.08s-1.49,8.74-1.79,10.18-.55,2.82-.55,3.08.92.51,3.31.64a19,19,0,0,1,4.64.74,4.26,4.26,0,0,1,2.66,4.5c-.26,2.57-1.4,3.38-6.85,4.91-2.56.72-5,1.38-5.37,1.46-.61.14-.84.82-1.54,4.52-1.1,5.88-6.74,29.06-7.48,30.77a3.91,3.91,0,0,1-4.12,2.75,3.26,3.26,0,0,1-3-1.27l-1.27-1.26.25-4c.32-5.06,1.69-15.81,3-23.58l1-6-2.54-.41c-3.8-.61-5.85-1.37-7.15-2.67a4.31,4.31,0,0,1-1.25-4.59c.73-2.67,4.78-4.55,7.55-3.51a9.13,9.13,0,0,0,3.24,0l2.41-.35.38-1.48c1.36-5.36,6-21.44,7-24.56,1.35-4,1.84-4.77,3.41-5.58a4,4,0,0,1,1.68-.44A4.36,4.36,0,0,1,206.76,60.73Z"/></g></g></svg>